<?xml version="1.0" standalone="no"?>
<!DOCTYPE svg PUBLIC "-//W3C//DTD SVG 20010904//EN"
 "http://www.w3.org/TR/2001/REC-SVG-20010904/DTD/svg10.dtd">
<svg version="1.0" xmlns="http://www.w3.org/2000/svg"
 width="512.000000pt" height="512.000000pt" viewBox="0 0 512.000000 512.000000"
 preserveAspectRatio="xMidYMid meet">

<g transform="translate(0.000000,512.000000) scale(0.100000,-0.100000)"
fill="#000000" stroke="none">
<path d="M3507 5105 c-264 -43 -520 -178 -728 -385 -167 -165 -280 -335 -360
-539 -66 -168 -88 -284 -99 -526 -18 -378 -75 -617 -216 -897 -147 -293 -261
-427 -830 -978 -182 -177 -220 -229 -231 -317 -3 -26 0 -67 6 -90 39 -145 185
-170 469 -79 79 25 147 46 151 46 5 0 11 -30 14 -67 9 -95 46 -166 104 -200
93 -54 257 -38 459 46 l94 40 48 -48 c37 -37 60 -51 101 -61 103 -24 193 2
366 106 144 87 222 124 264 124 28 0 46 -12 115 -79 91 -89 126 -110 195 -118
180 -21 677 310 982 654 121 137 166 195 260 336 373 561 516 1229 394 1833
-34 170 -75 287 -155 449 -200 403 -527 657 -951 740 -118 23 -342 28 -452 10z
m343 -155 c886 -109 1335 -1125 975 -2205 -174 -523 -550 -1010 -1025 -1330
-170 -114 -317 -183 -365 -171 -13 3 -57 39 -97 79 -82 82 -129 109 -203 115
-73 6 -170 -31 -325 -123 -136 -81 -213 -115 -258 -115 -32 0 -67 21 -61 37 2
6 45 41 96 79 124 93 263 214 263 228 0 6 -23 34 -50 61 -37 37 -54 47 -64 40
-7 -6 -52 -44 -100 -85 -246 -211 -492 -341 -680 -356 -71 -6 -75 -6 -100 19
-22 22 -26 35 -26 84 0 94 2 96 123 164 190 106 477 310 564 401 l31 33 -51
57 -52 58 -65 -56 c-193 -167 -423 -318 -655 -430 -257 -124 -466 -181 -508
-140 -38 38 -14 94 84 198 24 25 128 123 230 217 377 344 576 591 730 906 143
292 219 621 219 950 1 546 382 1071 903 1244 144 48 298 61 467 41z"/>
<path d="M3672 3814 c-63 -31 -106 -87 -132 -173 -37 -117 -16 -258 50 -348
36 -49 117 -93 170 -93 53 0 134 44 170 93 39 54 70 153 70 227 0 74 -31 173
-70 227 -36 49 -117 93 -170 93 -20 0 -59 -12 -88 -26z m135 -172 c26 -40 38
-105 29 -166 -8 -53 -44 -110 -72 -114 -41 -6 -83 75 -83 158 0 83 42 164 83
158 11 -2 30 -18 43 -36z"/>
<path d="M4472 3814 c-63 -31 -106 -87 -132 -173 -37 -117 -16 -258 50 -348
36 -49 117 -93 170 -93 53 0 134 44 170 93 39 54 70 153 70 227 0 74 -31 173
-70 227 -36 49 -117 93 -170 93 -20 0 -59 -12 -88 -26z m135 -172 c26 -40 38
-105 29 -166 -8 -53 -44 -110 -72 -114 -41 -6 -83 75 -83 158 0 83 42 164 83
158 11 -2 30 -18 43 -36z"/>
<path d="M2604 2184 l-48 -55 56 -56 56 -56 36 41 c20 22 46 51 56 65 l20 25
-53 39 c-28 22 -57 42 -64 46 -7 4 -30 -15 -59 -49z"/>
<path d="M402 1296 c-151 -38 -309 -159 -367 -281 -38 -79 -42 -197 -8 -260
85 -161 293 -197 512 -89 98 48 196 145 241 237 76 156 23 312 -128 379 -57
25 -179 32 -250 14z m167 -156 c55 -16 81 -47 81 -97 0 -57 -27 -108 -88 -165
-79 -74 -164 -110 -261 -110 -162 0 -191 119 -62 255 91 96 231 146 330 117z"/>
<path d="M3040 951 c-115 -35 -209 -135 -226 -238 -16 -101 56 -201 161 -223
193 -40 402 147 355 319 -29 110 -169 179 -290 142z m125 -167 c22 -22 11 -51
-34 -95 -45 -44 -101 -58 -137 -34 -29 19 -30 30 -4 73 35 57 140 91 175 56z"/>
<path d="M1469 636 c-117 -33 -239 -127 -294 -228 -37 -67 -46 -176 -21 -242
21 -56 77 -113 135 -140 65 -30 203 -29 284 1 220 82 350 305 273 469 -58 126
-216 184 -377 140z m186 -161 c56 -27 69 -81 34 -151 -53 -111 -217 -189 -323
-154 -46 15 -66 44 -66 96 0 135 227 269 355 209z"/>
</g>
</svg>
