<?xml version="1.0" standalone="no"?>
<!DOCTYPE svg PUBLIC "-//W3C//DTD SVG 20010904//EN"
 "http://www.w3.org/TR/2001/REC-SVG-20010904/DTD/svg10.dtd">
<svg version="1.0" xmlns="http://www.w3.org/2000/svg"
 width="225.000000pt" height="225.000000pt" viewBox="0 0 225.000000 225.000000"
 preserveAspectRatio="xMidYMid meet">

<g transform="translate(0.000000,225.000000) scale(0.100000,-0.100000)"
fill="#000000" stroke="none">
<path d="M1370 1741 c-149 -49 -221 -208 -156 -347 89 -191 363 -188 449 6 53
119 1 261 -117 322 -43 22 -136 32 -176 19z m131 -198 c61 -36 76 -138 28
-189 -89 -95 -247 -1 -207 122 24 72 113 106 179 67z"/>
<path d="M748 1604 c-53 -28 -73 -105 -43 -164 32 -62 129 -80 184 -34 86 72
38 215 -72 214 -23 -1 -54 -7 -69 -16z"/>
<path d="M1005 1097 c-95 -45 -131 -113 -123 -231 6 -91 40 -160 117 -237 125
-124 316 -173 437 -111 212 108 136 432 -132 559 -67 32 -89 37 -163 41 -75 3
-93 0 -136 -21z"/>
</g>
</svg>
